<?xml version="1.0" standalone="no"?>
<!DOCTYPE svg PUBLIC "-//W3C//DTD SVG 20010904//EN"
 "http://www.w3.org/TR/2001/REC-SVG-20010904/DTD/svg10.dtd">
<svg version="1.0" xmlns="http://www.w3.org/2000/svg"
 width="194.000000pt" height="229.000000pt" viewBox="0 0 194.000000 229.000000"
 preserveAspectRatio="xMidYMid meet">

<g transform="translate(0.000000,229.000000) scale(0.100000,-0.100000)"
fill="#000000" stroke="none">
<path d="M999 2280 c-1 -3 -2 -23 -3 -45 -12 -239 -20 -345 -27 -345 -5 0 -39
26 -76 58 -78 65 -128 102 -141 102 -4 0 -36 18 -70 40 -34 23 -66 38 -71 35
-16 -9 0 -42 27 -54 21 -10 23 -14 11 -23 -11 -8 -10 -9 4 -4 17 5 52 -16 42
-26 -2 -2 6 -5 18 -5 17 -2 19 0 7 7 -8 5 -10 10 -4 10 16 0 45 -35 37 -45 -5
-4 -3 -5 3 -2 7 4 23 -4 35 -18 13 -13 28 -25 32 -25 4 0 23 -12 42 -27 24
-19 31 -30 22 -36 -8 -5 -5 -7 8 -6 32 2 46 0 42 -8 -6 -10 59 -11 68 -2 13
13 44 -3 38 -19 -3 -10 -1 -13 4 -7 4 6 17 15 28 22 11 6 18 17 16 25 -16 50
-27 251 -14 271 3 5 14 -5 24 -22 22 -36 24 -45 7 -35 -7 4 -8 3 -4 -5 4 -6
11 -9 16 -6 4 3 11 -2 14 -11 9 -23 8 -26 -6 -18 -7 4 1 -6 17 -22 37 -36 83
-100 64 -89 -8 4 -2 -5 14 -19 15 -15 37 -47 48 -72 14 -29 30 -46 45 -50 13
-3 22 -10 19 -14 -3 -5 3 -7 12 -6 16 3 18 15 18 100 0 85 2 99 19 112 11 8
14 14 7 14 -7 0 -11 6 -8 13 2 6 9 11 15 10 6 -2 9 3 6 11 -3 8 -1 17 5 21 7
4 11 -14 11 -54 0 -42 -4 -61 -12 -61 -9 0 -10 -2 -2 -8 12 -7 20 -29 28 -72
2 -14 9 -38 15 -53 6 -16 8 -33 5 -39 -5 -7 -2 -8 6 -3 10 6 12 0 8 -24 -2
-17 -2 -31 1 -31 6 0 29 -75 33 -105 3 -25 41 -9 55 22 7 18 18 33 23 33 6 0
9 3 9 8 -1 4 0 10 1 15 1 4 3 10 4 15 2 10 55 92 60 92 2 0 1 -19 -3 -42 -7
-53 -6 -287 2 -294 3 -3 15 -3 26 1 19 6 21 14 21 103 0 107 15 192 53 301
l25 72 -24 10 c-44 16 -64 11 -64 -15 0 -19 -60 -111 -89 -136 -4 -3 -17 -22
-31 -42 -14 -21 -28 -38 -32 -38 -20 0 -54 163 -63 309 -4 57 -9 110 -12 118
-3 7 -18 13 -34 13 -33 0 -62 -42 -106 -157 -15 -40 -33 -73 -40 -73 -16 0
-74 91 -140 219 -29 57 -58 110 -63 117 -11 12 -79 25 -81 14z"/>
<path d="M585 2000 c-3 -6 1 -7 9 -4 18 7 21 14 7 14 -6 0 -13 -4 -16 -10z"/>
<path d="M415 1945 c25 -20 100 -54 199 -89 18 -6 17 -10 -17 -43 l-36 -37
-72 18 c-103 25 -111 0 -10 -34 l50 -17 -17 -34 c-17 -33 -19 -34 -70 -31 -58
3 -62 -8 -10 -28 18 -8 35 -15 37 -16 2 -2 -15 -35 -38 -74 -40 -67 -44 -71
-72 -65 -23 5 -33 1 -54 -21 -30 -32 -32 -62 -6 -113 18 -34 18 -40 5 -60 -14
-19 -13 -28 8 -91 12 -39 29 -78 38 -88 8 -9 24 -37 35 -61 11 -24 46 -72 78
-105 61 -64 87 -99 87 -115 0 -19 -156 -75 -166 -60 -9 15 -21 10 -27 -11 -3
-13 -14 -20 -30 -20 -13 0 -32 -9 -42 -20 -27 -30 -40 -25 -54 21 -14 46 -54
89 -83 89 -21 0 -58 -54 -58 -85 0 -12 5 -26 11 -32 13 -13 -8 -53 -28 -53
-20 0 -53 -56 -53 -90 0 -22 9 -40 28 -59 16 -14 32 -42 36 -62 7 -38 38 -79
60 -79 7 0 21 16 32 35 l18 35 31 -30 c36 -34 61 -38 70 -11 9 30 7 122 -4
158 -9 31 -1 43 28 43 9 0 27 -56 36 -110 9 -50 26 -66 56 -49 13 7 28 12 32
11 5 -1 21 7 37 18 27 19 60 27 60 14 0 -27 -27 -87 -43 -96 -13 -7 -16 -13
-8 -17 16 -10 -8 -69 -31 -77 -21 -6 -23 -15 -7 -31 13 -13 -5 -89 -23 -95 -7
-3 -8 -9 -2 -19 8 -13 12 -37 15 -95 1 -19 11 -22 98 -33 93 -11 438 -17 448
-8 2 3 6 36 7 74 2 37 7 86 10 108 15 90 30 155 37 155 3 0 21 -11 40 -25 19
-13 48 -32 64 -41 17 -9 33 -21 36 -25 3 -5 29 20 57 56 53 66 73 75 105 51
17 -13 16 -18 -13 -106 -16 -51 -27 -96 -25 -101 7 -11 65 -39 82 -39 7 0 22
9 33 20 20 20 20 20 20 -15 0 -41 39 -89 67 -83 23 4 43 45 43 85 l0 32 25
-24 c39 -40 95 -29 95 19 0 22 -42 100 -72 132 -19 22 -19 22 21 61 40 38 41
41 30 74 -12 36 -51 79 -73 79 -7 0 -33 -18 -57 -41 l-44 -41 -35 20 c-19 11
-35 27 -35 36 0 16 -32 39 -127 90 -80 44 -217 136 -218 147 0 3 27 14 60 24
34 10 63 22 66 27 3 4 12 8 19 8 8 0 39 11 70 25 l55 26 44 -26 c23 -14 55
-25 70 -25 14 0 34 -5 44 -11 23 -14 57 2 135 65 68 56 86 99 62 145 -8 17
-27 38 -40 47 -28 18 -33 34 -10 34 8 0 15 5 15 10 0 6 9 10 20 10 22 0 27 15
8 27 -23 14 -43 12 -76 -8 -27 -16 -37 -17 -55 -7 -12 6 -35 11 -50 10 -20 -2
-26 1 -21 9 4 8 3 9 -4 5 -30 -18 -5 -66 34 -66 13 0 26 -4 29 -10 3 -5 16
-10 29 -10 30 0 66 -40 66 -74 0 -53 -45 -117 -95 -136 -29 -11 -108 -2 -99
11 3 5 -2 6 -10 3 -10 -4 -28 7 -48 28 -17 18 -26 25 -18 15 19 -26 7 -30 -23
-7 -29 23 -37 25 -37 7 0 -6 -15 -18 -32 -26 -43 -18 -117 -51 -203 -91 -112
-52 -186 -37 -377 80 -16 9 -25 20 -21 24 4 4 1 4 -8 1 -15 -5 -149 90 -149
106 0 5 -6 9 -13 9 -21 0 -164 250 -151 263 3 3 7 15 8 28 5 38 17 59 30 52 6
-3 8 -2 3 2 -4 5 0 16 8 25 8 9 18 39 21 66 7 49 46 140 69 159 7 5 21 26 31
45 11 19 21 37 25 40 3 3 20 30 38 60 18 30 45 67 59 82 24 26 29 27 89 22 77
-7 82 6 14 38 -27 12 -47 26 -44 32 3 5 1 6 -5 2 -6 -4 -19 -2 -29 3 -10 6
-35 13 -55 16 -21 3 -38 9 -38 13 0 5 -10 8 -22 9 -34 1 -89 13 -109 23 -10 6
-26 10 -36 10 -14 0 -12 -5 12 -25z m-35 -512 c0 -22 -49 -71 -51 -52 -4 45 7
69 31 69 12 0 20 -7 20 -17z m-208 -638 c-2 -9 1 -14 6 -11 9 5 32 -57 32 -88
0 -19 43 -22 84 -6 24 9 26 7 26 -19 0 -27 -22 -47 -40 -36 -4 2 -15 -4 -25
-15 -16 -17 -16 -24 -5 -44 7 -13 10 -30 8 -38 -3 -7 -1 -21 4 -32 6 -10 7
-34 3 -54 -6 -35 -7 -35 -26 -15 -11 10 -22 37 -26 58 -5 33 -4 37 10 32 33
-12 16 8 -33 42 -28 18 -50 37 -50 41 0 4 -10 10 -22 13 -18 5 -19 8 -8 21 7
9 18 16 25 16 15 0 18 67 4 76 -13 8 -11 58 3 72 16 16 34 9 30 -13z m-72
-200 c0 -22 -36 -59 -49 -51 -12 8 -7 41 11 63 11 14 38 6 38 -12z m59 -37
c19 -12 17 -40 -11 -110 -27 -72 -53 15 -26 89 14 38 12 37 37 21z m1456 -105
c15 -20 -2 -54 -42 -86 -30 -24 -29 -48 2 -77 14 -13 25 -32 25 -42 0 -10 7
-21 15 -24 8 -4 15 -17 15 -30 0 -22 -2 -23 -20 -14 -12 6 -26 21 -31 33 -9
19 -17 22 -50 19 -24 -3 -38 -9 -36 -16 2 -6 10 -11 17 -11 15 0 24 -47 15
-82 -4 -16 -10 -21 -23 -16 -26 10 -32 23 -32 76 l0 49 -32 -7 c-38 -8 -48
-16 -30 -22 20 -8 14 -20 -13 -25 -41 -8 -50 14 -30 78 9 30 15 64 12 75 -4
16 -2 19 14 14 10 -4 19 -3 19 0 0 10 -42 44 -67 55 -27 11 -22 33 10 48 18 8
32 2 85 -35 65 -46 92 -50 92 -11 0 25 36 68 58 68 8 0 20 -8 27 -17z"/>
<path d="M510 1956 c0 -2 7 -7 16 -10 8 -3 12 -2 9 4 -6 10 -25 14 -25 6z"/>
<path d="M976 1811 c-4 -6 -3 -11 1 -11 5 0 13 -10 18 -22 7 -16 22 -25 46
-29 37 -6 63 -22 164 -100 44 -35 65 -45 75 -38 12 7 12 9 2 9 -8 0 -12 5 -10
12 3 7 -16 26 -41 43 -25 17 -45 36 -44 43 2 6 -4 9 -12 6 -10 -4 -15 0 -16
12 0 12 -3 14 -6 6 -4 -11 -8 -10 -22 2 -9 8 -43 24 -76 37 -33 12 -63 26 -66
32 -4 5 -9 5 -13 -2z"/>
<path d="M1224 1720 c0 -10 2 -17 4 -15 17 17 119 -75 106 -96 -5 -8 -3 -11 7
-7 8 3 22 -5 33 -20 11 -14 13 -22 6 -17 -9 5 -11 4 -6 -3 10 -17 36 -15 42 3
4 8 1 22 -6 30 -7 8 -9 15 -4 15 5 0 -2 7 -14 16 -12 8 -21 23 -20 32 2 9 -2
17 -9 17 -7 0 -21 8 -32 17 -26 22 -76 48 -93 48 -8 0 -14 -9 -14 -20z"/>
<path d="M1801 1598 c-43 -95 -51 -117 -51 -135 0 -10 -4 -23 -9 -28 -13 -14
-16 -64 -7 -106 9 -43 38 -77 86 -103 19 -10 40 -25 46 -33 10 -11 13 -11 18
3 9 23 -1 34 -49 55 -23 10 -48 26 -56 35 -12 14 -9 20 19 44 18 15 57 39 87
54 30 15 55 30 55 35 0 13 -36 41 -53 41 -10 0 -27 -11 -39 -25 -12 -14 -28
-23 -35 -21 -7 3 -10 -1 -6 -10 6 -17 -13 -19 -21 -1 -3 7 -5 6 -3 -3 1 -9 -8
-28 -21 -44 -15 -20 -22 -24 -22 -12 0 9 5 16 10 16 6 0 10 9 10 20 0 28 101
194 110 180 4 -6 7 3 8 19 0 25 -5 34 -29 46 l-29 16 -19 -43z"/>
<path d="M777 1543 c-18 -21 -41 -99 -32 -113 3 -5 -5 -16 -19 -25 -30 -20
-50 -67 -42 -98 3 -13 22 -43 42 -65 37 -43 71 -53 104 -32 11 7 4 13 -32 29
-51 21 -84 67 -73 101 10 31 67 36 117 12 23 -12 45 -19 50 -16 14 9 -32 54
-71 71 l-33 14 21 23 c28 30 44 85 30 103 -16 18 -43 16 -62 -4z m31 -33 c-7
-11 -16 -20 -21 -20 -4 0 -3 9 3 20 6 11 15 20 20 20 6 0 5 -9 -2 -20z"/>
<path d="M1871 1514 c0 -11 3 -14 6 -6 3 7 2 16 -1 19 -3 4 -6 -2 -5 -13z"/>
<path d="M988 1498 c-14 -12 -36 -55 -52 -101 -17 -51 28 -95 63 -63 10 9 21
13 26 9 4 -5 5 -2 1 5 -4 6 -4 18 1 25 4 6 15 33 23 59 l16 46 -25 13 c-14 8
-28 15 -31 16 -3 2 -13 -2 -22 -9z m27 -64 c-8 -20 -15 -38 -15 -40 0 -2 -5
-4 -10 -4 -6 0 -1 18 10 40 25 50 35 52 15 4z"/>
<path d="M1819 1483 c-13 -16 -12 -17 4 -4 9 7 17 15 17 17 0 8 -8 3 -21 -13z"/>
<path d="M397 1264 c-4 -4 -7 -14 -7 -22 0 -20 63 -121 102 -164 18 -19 48
-54 66 -76 18 -23 45 -47 60 -55 15 -7 26 -19 24 -26 -1 -7 2 -10 7 -7 6 4 25
-7 43 -24 52 -48 107 -80 137 -80 15 0 56 9 90 20 34 12 67 18 73 14 7 -4 8
-3 4 4 -4 7 0 12 11 13 35 1 170 39 221 62 22 10 22 10 2 29 -22 21 -145 75
-230 102 -30 10 -74 26 -97 37 -24 10 -49 19 -56 19 -16 0 -165 53 -195 69
-11 6 -28 11 -37 11 -17 0 -106 38 -115 49 -3 3 -14 8 -25 9 -11 2 -22 7 -25
10 -7 10 -45 14 -53 6z m488 -254 c-3 -5 -16 -10 -28 -10 -20 -1 -21 -2 -5
-14 10 -7 14 -17 10 -21 -4 -5 4 -1 18 8 29 20 52 23 25 3 -17 -12 -15 -13 21
-12 36 1 39 -1 39 -26 -1 -14 3 -25 6 -22 14 8 21 -18 9 -29 -10 -9 -11 -9 -6
3 6 11 4 11 -6 -1 -25 -31 -178 -7 -178 28 0 7 8 17 18 23 16 11 16 11 0 6
-10 -3 -18 -1 -18 4 0 6 4 10 10 10 5 0 6 8 3 18 -7 16 -6 16 11 0 9 -10 22
-18 27 -18 6 0 3 7 -5 16 -23 22 -20 32 12 37 15 2 31 5 35 6 5 0 5 -3 2 -9z"/>
<path d="M835 930 c-3 -5 -1 -10 4 -10 6 0 11 5 11 10 0 6 -2 10 -4 10 -3 0
-8 -4 -11 -10z"/>
<path d="M1689 1243 c-10 -11 -10 -14 -1 -9 8 5 15 -2 22 -18 5 -14 13 -26 18
-26 5 0 35 -22 66 -50 63 -55 92 -65 81 -27 -9 28 -43 65 -67 73 -16 5 -17 8
-6 21 11 14 10 15 -11 8 -18 -5 -22 -4 -16 5 5 8 4 11 -2 7 -13 -8 -76 17 -66
26 3 4 4 7 1 7 -3 0 -12 -8 -19 -17z"/>
<path d="M1477 1243 c-13 -13 -8 -53 7 -47 7 3 16 -2 19 -10 7 -17 37 -22 37
-8 0 5 -9 17 -20 27 -11 10 -17 22 -14 26 3 5 -3 6 -12 2 -12 -4 -15 -3 -10 5
8 13 3 16 -7 5z"/>
<path d="M1697 1134 c-3 -3 8 -20 24 -38 17 -17 37 -44 45 -59 15 -27 34 -29
34 -2 0 25 -42 86 -55 81 -8 -3 -16 2 -19 10 -6 15 -18 18 -29 8z"/>
</g>
</svg>
